<svg width="220" height="61" viewBox="0 0 220 61" fill="none" xmlns="http://www.w3.org/2000/svg">
<path d="M12 5C12 3.89543 12.8954 3 14 3H31V58H14C12.8954 58 12 57.1046 12 56V5Z" fill="#2E2AEA"/>
<path d="M32 3H47C48.1046 3 49 3.89543 49 5V56C49 57.1046 48.1046 58 47 58H32V3Z" fill="#2E2AEA"/>
<rect x="27" y="27" width="2" height="6" rx="0.75" fill="#F7F7F7"/>
<rect x="34" y="27" width="2" height="6" rx="0.75" fill="#F6F6F6"/>
<rect width="0.2" height="55" transform="matrix(-1 0 0 1 31 3)" fill="#C4C4C4"/>
<rect width="0.2" height="55" transform="matrix(-1 0 0 1 32.2 3)" fill="#C4C4C4"/>
<path d="M66.024 30L60.528 13.2H64.56L69.336 28.08H67.32L72.312 13.2H75.912L80.712 28.08H78.768L83.664 13.2H87.384L81.888 30H77.712L73.464 16.944H74.568L70.2 30H66.024ZM86.784 30L94.272 13.2H98.112L105.624 30H101.544L95.4 15.168H96.936L90.768 30H86.784ZM90.528 26.4L91.56 23.448H100.2L101.256 26.4H90.528ZM107.367 30V13.2H114.639C116.143 13.2 117.439 13.448 118.527 13.944C119.615 14.424 120.455 15.12 121.047 16.032C121.639 16.944 121.935 18.032 121.935 19.296C121.935 20.544 121.639 21.624 121.047 22.536C120.455 23.432 119.615 24.12 118.527 24.6C117.439 25.08 116.143 25.32 114.639 25.32H109.527L111.255 23.616V30H107.367ZM118.047 30L113.847 23.904H117.999L122.247 30H118.047ZM111.255 24.048L109.527 22.224H114.423C115.623 22.224 116.519 21.968 117.111 21.456C117.703 20.928 117.999 20.208 117.999 19.296C117.999 18.368 117.703 17.648 117.111 17.136C116.519 16.624 115.623 16.368 114.423 16.368H109.527L111.255 14.52V24.048ZM125.015 30V13.2H132.647C134.471 13.2 136.079 13.552 137.471 14.256C138.863 14.944 139.951 15.912 140.735 17.16C141.519 18.408 141.911 19.888 141.911 21.6C141.911 23.296 141.519 24.776 140.735 26.04C139.951 27.288 138.863 28.264 137.471 28.968C136.079 29.656 134.471 30 132.647 30H125.015ZM128.903 26.808H132.455C133.575 26.808 134.543 26.6 135.359 26.184C136.191 25.752 136.831 25.144 137.279 24.36C137.743 23.576 137.975 22.656 137.975 21.6C137.975 20.528 137.743 19.608 137.279 18.84C136.831 18.056 136.191 17.456 135.359 17.04C134.543 16.608 133.575 16.392 132.455 16.392H128.903V26.808ZM144.844 30V13.2H152.116C153.62 13.2 154.916 13.448 156.004 13.944C157.092 14.424 157.932 15.12 158.524 16.032C159.116 16.944 159.412 18.032 159.412 19.296C159.412 20.544 159.116 21.624 158.524 22.536C157.932 23.432 157.092 24.12 156.004 24.6C154.916 25.08 153.62 25.32 152.116 25.32H147.004L148.732 23.616V30H144.844ZM155.524 30L151.324 23.904H155.476L159.724 30H155.524ZM148.732 24.048L147.004 22.224H151.9C153.1 22.224 153.996 21.968 154.588 21.456C155.18 20.928 155.476 20.208 155.476 19.296C155.476 18.368 155.18 17.648 154.588 17.136C153.996 16.624 153.1 16.368 151.9 16.368H147.004L148.732 14.52V24.048ZM170.652 30.288C169.324 30.288 168.092 30.072 166.956 29.64C165.836 29.208 164.86 28.6 164.028 27.816C163.212 27.032 162.572 26.112 162.108 25.056C161.66 24 161.436 22.848 161.436 21.6C161.436 20.352 161.66 19.2 162.108 18.144C162.572 17.088 163.22 16.168 164.052 15.384C164.884 14.6 165.86 13.992 166.98 13.56C168.1 13.128 169.316 12.912 170.628 12.912C171.956 12.912 173.172 13.128 174.276 13.56C175.396 13.992 176.364 14.6 177.18 15.384C178.012 16.168 178.66 17.088 179.124 18.144C179.588 19.184 179.82 20.336 179.82 21.6C179.82 22.848 179.588 24.008 179.124 25.08C178.66 26.136 178.012 27.056 177.18 27.84C176.364 28.608 175.396 29.208 174.276 29.64C173.172 30.072 171.964 30.288 170.652 30.288ZM170.628 26.976C171.38 26.976 172.068 26.848 172.692 26.592C173.332 26.336 173.892 25.968 174.372 25.488C174.852 25.008 175.22 24.44 175.476 23.784C175.748 23.128 175.884 22.4 175.884 21.6C175.884 20.8 175.748 20.072 175.476 19.416C175.22 18.76 174.852 18.192 174.372 17.712C173.908 17.232 173.356 16.864 172.716 16.608C172.076 16.352 171.38 16.224 170.628 16.224C169.876 16.224 169.18 16.352 168.54 16.608C167.916 16.864 167.364 17.232 166.884 17.712C166.404 18.192 166.028 18.76 165.756 19.416C165.5 20.072 165.372 20.8 165.372 21.6C165.372 22.384 165.5 23.112 165.756 23.784C166.028 24.44 166.396 25.008 166.86 25.488C167.34 25.968 167.9 26.336 168.54 26.592C169.18 26.848 169.876 26.976 170.628 26.976ZM182.742 30V13.2H190.95C193.062 13.2 194.646 13.6 195.702 14.4C196.774 15.2 197.31 16.256 197.31 17.568C197.31 18.448 197.094 19.216 196.662 19.872C196.23 20.512 195.638 21.008 194.886 21.36C194.134 21.712 193.27 21.888 192.294 21.888L192.75 20.904C193.806 20.904 194.742 21.08 195.558 21.432C196.374 21.768 197.006 22.272 197.454 22.944C197.918 23.616 198.15 24.44 198.15 25.416C198.15 26.856 197.582 27.984 196.446 28.8C195.31 29.6 193.638 30 191.43 30H182.742ZM186.606 27.072H191.142C192.15 27.072 192.91 26.912 193.422 26.592C193.95 26.256 194.214 25.728 194.214 25.008C194.214 24.304 193.95 23.784 193.422 23.448C192.91 23.096 192.15 22.92 191.142 22.92H186.318V20.088H190.47C191.414 20.088 192.134 19.928 192.63 19.608C193.142 19.272 193.398 18.768 193.398 18.096C193.398 17.44 193.142 16.952 192.63 16.632C192.134 16.296 191.414 16.128 190.47 16.128H186.606V27.072ZM204.67 19.968H212.758V22.992H204.67V19.968ZM204.958 26.88H214.102V30H201.094V13.2H213.79V16.32H204.958V26.88Z" fill="#2E2AEA"/>
<path d="M61.652 49V39.2H68.82V40.082H62.674V43.288H65.88C67.0373 43.288 67.9147 43.526 68.512 44.002C69.1187 44.4687 69.422 45.1593 69.422 46.074C69.422 47.0167 69.0953 47.74 68.442 48.244C67.798 48.748 66.8693 49 65.656 49H61.652ZM62.674 48.174H65.642C66.5473 48.174 67.2287 48.0013 67.686 47.656C68.1527 47.3013 68.386 46.788 68.386 46.116C68.386 44.7813 67.4713 44.114 65.642 44.114H62.674V48.174ZM70.0368 48.986L70.1068 48.132C70.1721 48.1413 70.2328 48.1553 70.2888 48.174C70.3541 48.1833 70.4101 48.188 70.4568 48.188C70.7555 48.188 70.9935 48.076 71.1708 47.852C71.3575 47.628 71.4975 47.3293 71.5908 46.956C71.6841 46.5827 71.7495 46.1627 71.7868 45.696C71.8241 45.22 71.8568 44.744 71.8848 44.268L72.0108 41.65H77.4008V49H76.4068V42.224L76.6588 42.518H72.6548L72.8928 42.21L72.7808 44.338C72.7528 44.9727 72.7015 45.5793 72.6268 46.158C72.5615 46.7367 72.4541 47.2453 72.3048 47.684C72.1648 48.1227 71.9688 48.468 71.7168 48.72C71.4648 48.9627 71.1428 49.084 70.7508 49.084C70.6388 49.084 70.5221 49.0747 70.4008 49.056C70.2888 49.0373 70.1675 49.014 70.0368 48.986ZM83.2505 49.07C82.5412 49.07 81.9018 48.9113 81.3325 48.594C80.7725 48.2673 80.3292 47.824 80.0025 47.264C79.6758 46.6947 79.5125 46.046 79.5125 45.318C79.5125 44.5807 79.6758 43.932 80.0025 43.372C80.3292 42.812 80.7725 42.3733 81.3325 42.056C81.8925 41.7387 82.5318 41.58 83.2505 41.58C83.9785 41.58 84.6225 41.7387 85.1825 42.056C85.7518 42.3733 86.1952 42.812 86.5125 43.372C86.8392 43.932 87.0025 44.5807 87.0025 45.318C87.0025 46.046 86.8392 46.6947 86.5125 47.264C86.1952 47.824 85.7518 48.2673 85.1825 48.594C84.6132 48.9113 83.9692 49.07 83.2505 49.07ZM83.2505 48.188C83.7825 48.188 84.2538 48.0713 84.6645 47.838C85.0752 47.5953 85.3972 47.2593 85.6305 46.83C85.8732 46.3913 85.9945 45.8873 85.9945 45.318C85.9945 44.7393 85.8732 44.2353 85.6305 43.806C85.3972 43.3767 85.0752 43.0453 84.6645 42.812C84.2538 42.5693 83.7872 42.448 83.2645 42.448C82.7418 42.448 82.2752 42.5693 81.8645 42.812C81.4538 43.0453 81.1272 43.3767 80.8845 43.806C80.6418 44.2353 80.5205 44.7393 80.5205 45.318C80.5205 45.8873 80.6418 46.3913 80.8845 46.83C81.1272 47.2593 81.4538 47.5953 81.8645 47.838C82.2752 48.0713 82.7372 48.188 83.2505 48.188ZM89.1269 49V41.65H94.3349V42.518H89.8689L90.1209 42.266V49H89.1269ZM99.4355 49V41.65H106.043V49H105.049V42.252L105.301 42.518H100.177L100.429 42.252V49H99.4355ZM112.663 49.07C112.028 49.07 111.454 48.9253 110.941 48.636C110.428 48.3373 110.017 47.9127 109.709 47.362C109.41 46.802 109.261 46.1207 109.261 45.318C109.261 44.5153 109.41 43.8387 109.709 43.288C110.008 42.728 110.414 42.3033 110.927 42.014C111.44 41.7247 112.019 41.58 112.663 41.58C113.363 41.58 113.988 41.7387 114.539 42.056C115.099 42.364 115.538 42.8027 115.855 43.372C116.172 43.932 116.331 44.5807 116.331 45.318C116.331 46.0647 116.172 46.718 115.855 47.278C115.538 47.838 115.099 48.2767 114.539 48.594C113.988 48.9113 113.363 49.07 112.663 49.07ZM108.869 51.716V41.65H109.821V43.862L109.723 45.332L109.863 46.816V51.716H108.869ZM112.593 48.188C113.116 48.188 113.582 48.0713 113.993 47.838C114.404 47.5953 114.73 47.2593 114.973 46.83C115.216 46.3913 115.337 45.8873 115.337 45.318C115.337 44.7487 115.216 44.2493 114.973 43.82C114.73 43.3907 114.404 43.0547 113.993 42.812C113.582 42.5693 113.116 42.448 112.593 42.448C112.07 42.448 111.599 42.5693 111.179 42.812C110.768 43.0547 110.442 43.3907 110.199 43.82C109.966 44.2493 109.849 44.7487 109.849 45.318C109.849 45.8873 109.966 46.3913 110.199 46.83C110.442 47.2593 110.768 47.5953 111.179 47.838C111.599 48.0713 112.07 48.188 112.593 48.188ZM121.491 49.07C120.781 49.07 120.142 48.9113 119.573 48.594C119.013 48.2673 118.569 47.824 118.243 47.264C117.916 46.6947 117.753 46.046 117.753 45.318C117.753 44.5807 117.916 43.932 118.243 43.372C118.569 42.812 119.013 42.3733 119.573 42.056C120.133 41.7387 120.772 41.58 121.491 41.58C122.219 41.58 122.863 41.7387 123.423 42.056C123.992 42.3733 124.435 42.812 124.753 43.372C125.079 43.932 125.243 44.5807 125.243 45.318C125.243 46.046 125.079 46.6947 124.753 47.264C124.435 47.824 123.992 48.2673 123.423 48.594C122.853 48.9113 122.209 49.07 121.491 49.07ZM121.491 48.188C122.023 48.188 122.494 48.0713 122.905 47.838C123.315 47.5953 123.637 47.2593 123.871 46.83C124.113 46.3913 124.235 45.8873 124.235 45.318C124.235 44.7393 124.113 44.2353 123.871 43.806C123.637 43.3767 123.315 43.0453 122.905 42.812C122.494 42.5693 122.027 42.448 121.505 42.448C120.982 42.448 120.515 42.5693 120.105 42.812C119.694 43.0453 119.367 43.3767 119.125 43.806C118.882 44.2353 118.761 44.7393 118.761 45.318C118.761 45.8873 118.882 46.3913 119.125 46.83C119.367 47.2593 119.694 47.5953 120.105 47.838C120.515 48.0713 120.977 48.188 121.491 48.188ZM134.055 49.07C133.346 49.07 132.707 48.9113 132.137 48.594C131.577 48.2673 131.134 47.824 130.807 47.264C130.481 46.6947 130.317 46.046 130.317 45.318C130.317 44.5807 130.481 43.932 130.807 43.372C131.134 42.812 131.577 42.3733 132.137 42.056C132.697 41.7387 133.337 41.58 134.055 41.58C134.783 41.58 135.427 41.7387 135.987 42.056C136.557 42.3733 137 42.812 137.317 43.372C137.644 43.932 137.807 44.5807 137.807 45.318C137.807 46.046 137.644 46.6947 137.317 47.264C137 47.824 136.557 48.2673 135.987 48.594C135.418 48.9113 134.774 49.07 134.055 49.07ZM134.055 48.188C134.587 48.188 135.059 48.0713 135.469 47.838C135.88 47.5953 136.202 47.2593 136.435 46.83C136.678 46.3913 136.799 45.8873 136.799 45.318C136.799 44.7393 136.678 44.2353 136.435 43.806C136.202 43.3767 135.88 43.0453 135.469 42.812C135.059 42.5693 134.592 42.448 134.069 42.448C133.547 42.448 133.08 42.5693 132.669 42.812C132.259 43.0453 131.932 43.3767 131.689 43.806C131.447 44.2353 131.325 44.7393 131.325 45.318C131.325 45.8873 131.447 46.3913 131.689 46.83C131.932 47.2593 132.259 47.5953 132.669 47.838C133.08 48.0713 133.542 48.188 134.055 48.188ZM144.931 48.524V42.518H141.389L141.305 44.156C141.286 44.6507 141.253 45.136 141.207 45.612C141.169 46.088 141.099 46.5267 140.997 46.928C140.903 47.32 140.768 47.642 140.591 47.894C140.413 48.1367 140.185 48.2767 139.905 48.314L138.911 48.132C139.2 48.1413 139.438 48.0387 139.625 47.824C139.811 47.6 139.956 47.2967 140.059 46.914C140.161 46.5313 140.236 46.0973 140.283 45.612C140.329 45.1173 140.367 44.6133 140.395 44.1L140.493 41.65H145.925V48.524H144.931ZM138.603 50.778V48.132H147.073V50.778H146.135V49H139.541V50.778H138.603ZM153.756 49V46.354L153.938 46.564H151.446C150.503 46.564 149.766 46.3587 149.234 45.948C148.702 45.5373 148.436 44.94 148.436 44.156C148.436 43.316 148.72 42.6907 149.29 42.28C149.859 41.86 150.62 41.65 151.572 41.65H154.666V49H153.756ZM148.38 49L150.396 46.172H151.432L149.458 49H148.38ZM153.756 46.06V42.224L153.938 42.518H151.6C150.918 42.518 150.386 42.6487 150.004 42.91C149.63 43.1713 149.444 43.596 149.444 44.184C149.444 45.276 150.139 45.822 151.53 45.822H153.938L153.756 46.06ZM157.5 49V41.65H162.708V42.518H158.242L158.494 42.266V49H157.5Z" fill="#131B43"/>
</svg>
